<svg width="500" height="300" viewBox="0 0 500 300" xmlns="http://www.w3.org/2000/svg">
  <rect width="500" height="300" fill="#f8f9fa"/>
  <rect width="500" height="300" fill="url(#grad1)"/>
  
  <!-- Gradient background -->
  <defs>
    <linearGradient id="grad1" x1="0%" y1="0%" x2="0%" y2="100%">
      <stop offset="0%" style="stop-color:#2c3e50;stop-opacity:1" />
      <stop offset="100%" style="stop-color:#4a235a;stop-opacity:1" />
    </linearGradient>
  </defs>
  
  <!-- Restaurant table -->
  <ellipse cx="250" cy="220" rx="170" ry="50" fill="#4a235a"/>
  <ellipse cx="250" cy="210" rx="160" ry="45" fill="#6c3483"/>
  
  <!-- Plate -->
  <circle cx="250" cy="190" r="60" fill="#f9f9f9"/>
  <circle cx="250" cy="190" r="55" fill="#ffffff"/>
  <circle cx="250" cy="190" r="50" stroke="#eeeeee" stroke-width="1" fill="none"/>
  
  <!-- Food presentation -->
  <rect x="230" y="175" width="40" height="10" rx="5" fill="#800000"/>
  <circle cx="240" cy="200" r="8" fill="#228b22"/>
  <circle cx="260" cy="200" r="8" fill="#228b22"/>
  
  <!-- Sauce drizzle -->
  <path d="M220,180 Q235,170 245,180 Q255,190 265,180" fill="none" stroke="#a04000" stroke-width="2"/>
  
  <!-- Cutlery -->
  <rect x="180" y="160" width="5" height="70" rx="2" fill="#c0c0c0"/>
  <rect x="315" y="160" width="5" height="70" rx="2" fill="#c0c0c0"/>
  <path d="M315,160 L330,140" stroke="#c0c0c0" stroke-width="5" stroke-linecap="round"/>
  <path d="M315,170 L330,150" stroke="#c0c0c0" stroke-width="5" stroke-linecap="round"/>
  <path d="M315,180 L330,160" stroke="#c0c0c0" stroke-width="5" stroke-linecap="round"/>
  <path d="M315,190 L330,170" stroke="#c0c0c0" stroke-width="5" stroke-linecap="round"/>
  
  <!-- Wine glass -->
  <path d="M350,190 L360,150 Q360,130 350,130 Q340,130 340,150 L350,190" fill="none" stroke="#c0c0c0" stroke-width="1"/>
  <rect x="345" y="190" width="10" height="20" fill="#c0c0c0"/>
  <ellipse cx="350" cy="210" rx="10" ry="3" fill="#c0c0c0"/>
  <path d="M342,140 L358,140" fill="none" stroke="#ff3366" stroke-width="4"/>
  
  <!-- Candle -->
  <rect x="150" y="160" width="10" height="20" fill="#ffd700"/>
  <ellipse cx="155" cy="160" rx="5" ry="2" fill="#ffd700"/>
  <path d="M155,155 L155,145" fill="none" stroke="#ff9933" stroke-width="2"/>
  <circle cx="155" cy="143" r="2" fill="#ffcc00"/>
  
  <!-- Text -->
  <text x="250" y="50" font-family="Arial" font-size="24" fill="#ffffff" text-anchor="middle" font-weight="bold">FINE DINING</text>
  <text x="250" y="80" font-family="Arial" font-size="16" fill="#ffffff" text-anchor="middle" font-style="italic">Exquisite Cuisine Experience</text>
</svg>